<svg width="15" height="15" viewBox="0 0 15 15" fill="none" xmlns="http://www.w3.org/2000/svg">
<path d="M14.0625 4.6875V2.26318C14.0625 2.14004 14.0382 2.01811 13.9911 1.90435C13.9439 1.79059 13.8748 1.68724 13.7877 1.6002L12.462 0.274512C12.2862 0.0987773 12.0479 3.75477e-05 11.7993 0L4.6875 0C4.43886 0 4.2004 0.0987721 4.02459 0.274587C3.84877 0.450403 3.75 0.68886 3.75 0.9375V14.0625C3.75 14.3111 3.84877 14.5496 4.02459 14.7254C4.2004 14.9012 4.43886 15 4.6875 15H14.0625C14.3111 15 14.5496 14.9012 14.7254 14.7254C14.9012 14.5496 15 14.3111 15 14.0625V5.625C15 5.37636 14.9012 5.1379 14.7254 4.96209C14.5496 4.78627 14.3111 4.6875 14.0625 4.6875ZM8.4375 12.6562C8.4375 12.7806 8.38811 12.8998 8.30021 12.9877C8.2123 13.0756 8.09307 13.125 7.96875 13.125H7.03125C6.90693 13.125 6.7877 13.0756 6.69979 12.9877C6.61189 12.8998 6.5625 12.7806 6.5625 12.6562V11.7188C6.5625 11.5944 6.61189 11.4752 6.69979 11.3873C6.7877 11.2994 6.90693 11.25 7.03125 11.25H7.96875C8.09307 11.25 8.2123 11.2994 8.30021 11.3873C8.38811 11.4752 8.4375 11.5944 8.4375 11.7188V12.6562ZM8.4375 8.90625C8.4375 9.03057 8.38811 9.1498 8.30021 9.23771C8.2123 9.32561 8.09307 9.375 7.96875 9.375H7.03125C6.90693 9.375 6.7877 9.32561 6.69979 9.23771C6.61189 9.1498 6.5625 9.03057 6.5625 8.90625V7.96875C6.5625 7.84443 6.61189 7.7252 6.69979 7.63729C6.7877 7.54939 6.90693 7.5 7.03125 7.5H7.96875C8.09307 7.5 8.2123 7.54939 8.30021 7.63729C8.38811 7.7252 8.4375 7.84443 8.4375 7.96875V8.90625ZM12.1875 12.6562C12.1875 12.7806 12.1381 12.8998 12.0502 12.9877C11.9623 13.0756 11.8431 13.125 11.7188 13.125H10.7812C10.6569 13.125 10.5377 13.0756 10.4498 12.9877C10.3619 12.8998 10.3125 12.7806 10.3125 12.6562V11.7188C10.3125 11.5944 10.3619 11.4752 10.4498 11.3873C10.5377 11.2994 10.6569 11.25 10.7812 11.25H11.7188C11.8431 11.25 11.9623 11.2994 12.0502 11.3873C12.1381 11.4752 12.1875 11.5944 12.1875 11.7188V12.6562ZM12.1875 8.90625C12.1875 9.03057 12.1381 9.1498 12.0502 9.23771C11.9623 9.32561 11.8431 9.375 11.7188 9.375H10.7812C10.6569 9.375 10.5377 9.32561 10.4498 9.23771C10.3619 9.1498 10.3125 9.03057 10.3125 8.90625V7.96875C10.3125 7.84443 10.3619 7.7252 10.4498 7.63729C10.5377 7.54939 10.6569 7.5 10.7812 7.5H11.7188C11.8431 7.5 11.9623 7.54939 12.0502 7.63729C12.1381 7.7252 12.1875 7.84443 12.1875 7.96875V8.90625ZM12.1875 5.625H5.625V1.875H10.3125V3.28125C10.3125 3.40557 10.3619 3.5248 10.4498 3.61271C10.5377 3.70061 10.6569 3.75 10.7812 3.75H12.1875V5.625ZM1.875 3.75H0.9375C0.68886 3.75 0.450403 3.84877 0.274587 4.02459C0.0987721 4.2004 0 4.43886 0 4.6875L0 14.0625C0 14.3111 0.0987721 14.5496 0.274587 14.7254C0.450403 14.9012 0.68886 15 0.9375 15H1.875C2.12364 15 2.3621 14.9012 2.53791 14.7254C2.71373 14.5496 2.8125 14.3111 2.8125 14.0625V4.6875C2.8125 4.43886 2.71373 4.2004 2.53791 4.02459C2.3621 3.84877 2.12364 3.75 1.875 3.75Z" fill="white"/>
</svg>
