<svg width="368" height="797" viewBox="0 0 368 797" fill="none" xmlns="http://www.w3.org/2000/svg">
<g opacity="0.6">
<path d="M116.128 755.794C97.8007 742.109 80.6684 727.031 64.2943 711.07C52.6339 699.702 41.6738 687.641 29.692 676.602C26.0579 673.255 21.8881 670.633 17.9986 667.641C17.9821 666.709 17.364 666.248 16.6965 665.712C2.02825 654.005 -14.865 648.053 -33.4229 647.146C-45.9486 646.536 -58.5238 646.792 -70.9918 648.688C-71.0001 432.456 -71.0001 216.224 -71.0001 0C-48.9647 13.1162 -24.2923 18.3512 0.273003 23.9736C31.2989 31.0799 61.0228 41.8054 89.6013 55.9191C117.693 69.7938 142.918 87.6503 165.992 108.705C166.181 108.879 166.247 109.175 166.379 109.414C166.709 109.695 167.03 109.975 167.36 110.255L167.327 110.222C166.981 112.25 168.695 113.067 169.733 114.254C175.683 121.022 181.542 127.848 186.313 135.548C190.565 142.423 194.323 149.513 197.792 156.842C200.924 163.462 203.206 170.354 204.805 177.296C207.524 189.101 208.538 201.195 207.623 213.421C207.137 219.835 206.634 226.248 205.341 232.497C202.778 244.822 198.938 256.776 193.763 268.301C189.329 278.161 184.616 287.938 178.641 296.867C169.947 309.867 161.797 323.041 156.919 337.971C155.361 342.745 154.002 347.65 153.235 352.604C151.694 362.662 152.197 372.662 154.752 382.604C156.803 390.617 159.663 398.309 163.635 405.473C168.802 414.797 175.032 423.495 182.234 431.376C185.951 435.448 189.148 440.205 194.463 442.571C222.539 472.2 256.086 495.498 286.61 522.291C292.774 527.699 299.185 532.843 304.813 538.845C305.159 539.15 305.505 539.455 305.851 539.768C307.104 540.972 308.357 542.167 309.609 543.371C309.444 545.283 310.788 546.355 311.966 547.484C316.713 552.043 320.932 557.08 325.019 562.225C337.1 577.427 347.137 593.89 352.815 612.505C358.88 632.381 359.819 652.736 355.493 673.222C351.999 689.801 346.403 705.604 338.443 720.551C329.247 737.814 317.075 752.488 301.294 764.228C280.586 779.627 256.985 786.297 231.711 787.904C218.995 788.712 206.288 787.731 193.73 785.489C170.384 781.317 148.291 773.651 127.714 761.738C125.637 760.534 123.602 758.885 120.907 759.199L120.94 759.224C120.949 757.492 119.77 757.426 118.501 757.476C118.221 757.261 117.932 757.039 117.652 756.825C117.422 756.066 116.869 755.786 116.128 755.794Z" fill="#FFF7F7"/>
<path d="M-71.0001 648.68C-58.532 646.792 -45.9568 646.528 -33.4311 647.138C-14.8732 648.045 2.02001 653.997 16.6883 665.704C17.3558 666.239 17.9821 666.701 17.9903 667.633C8.62898 662.785 -0.996056 658.704 -11.4946 656.891C-28.9565 653.865 -46.3359 655.094 -63.7236 657.427C-66.1546 657.756 -68.5773 658.185 -71.0083 658.573C-71.0001 655.275 -71.0001 651.977 -71.0001 648.68Z" fill="#FFC9C9"/>
<path d="M120.883 759.199C123.577 758.886 125.621 760.534 127.689 761.738C148.266 773.651 170.359 781.317 193.705 785.489C206.272 787.731 218.971 788.721 231.686 787.904C256.96 786.297 280.561 779.627 301.27 764.228C317.05 752.488 329.23 737.814 338.418 720.551C346.379 705.605 351.974 689.801 355.468 673.222C359.786 652.736 358.855 632.381 352.79 612.505C347.112 593.89 337.067 577.435 324.994 562.225C320.907 557.081 316.688 552.052 311.941 547.484C310.763 546.347 309.42 545.283 309.584 543.371C333.87 566.132 354.249 591.573 363.577 624.253C369.939 646.544 369.115 668.943 363.049 691.227C355.682 718.267 343.676 742.744 323.223 762.422C304.541 780.402 282.102 790.889 256.556 794.533C213.136 800.74 173.194 790.048 135.51 768.927C130.409 766.058 125.275 763.181 120.883 759.199Z" fill="#FFC9C9"/>
<path d="M194.447 442.571C189.131 440.205 185.934 435.448 182.218 431.376C175.015 423.495 168.794 414.797 163.618 405.473C159.646 398.309 156.787 390.618 154.735 382.604C152.189 372.662 151.678 362.662 153.219 352.604C153.977 347.65 155.337 342.745 156.902 337.971C161.781 323.033 169.931 309.859 178.625 296.867C184.599 287.938 189.313 278.161 193.746 268.301C198.929 256.776 202.77 244.822 205.324 232.498C206.626 226.249 207.129 219.826 207.607 213.421C208.53 201.195 207.508 189.101 204.789 177.296C203.19 170.354 200.907 163.454 197.776 156.842C194.315 149.513 190.557 142.424 186.297 135.548C181.534 127.848 175.666 121.022 169.717 114.254C168.67 113.067 166.964 112.25 167.31 110.222C184.665 125.54 198.386 143.586 207.64 164.831C222.951 199.975 220.289 235.037 206.494 269.884C199.762 286.891 190.326 302.431 180.421 317.741C170.186 333.561 163.19 350.717 162.481 369.785C161.707 390.56 169.156 408.837 181.072 425.448C185.3 431.335 189.98 436.875 194.447 442.571Z" fill="#FFC9C9"/>
</g>
</svg>
