<svg width="242" height="242" viewBox="0 0 242 242" fill="none" xmlns="http://www.w3.org/2000/svg">
<g clip-path="url(#clip0_2_70)">
<path d="M238.675 129.433L235.67 132.438L238.675 135.443L241.68 132.438L238.675 129.433Z" fill="#D8251E"/>
<path d="M226.749 117.666L223.899 120.516L226.749 123.365L229.599 120.516L226.749 117.666Z" fill="#D8251E"/>
<path d="M214.836 105.895L212.135 108.596L214.836 111.297L217.537 108.596L214.836 105.895Z" fill="#D8251E"/>
<path d="M202.911 94.1417L200.365 96.6873L202.911 99.2328L205.456 96.6873L202.911 94.1417Z" fill="#D8251E"/>
<path d="M190.989 82.3726L188.599 84.7626L190.989 87.1526L193.379 84.7626L190.989 82.3726Z" fill="#D8251E"/>
<path d="M179.078 70.6059L176.837 72.8474L179.078 75.0889L181.32 72.8474L179.078 70.6059Z" fill="#D8251E"/>
<path d="M167.156 58.8376L165.07 60.9236L167.156 63.0095L169.242 60.9236L167.156 58.8376Z" fill="#D8251E"/>
<path d="M155.231 47.0701L153.301 49.0005L155.231 50.9309L157.162 49.0005L155.231 47.0701Z" fill="#D8251E"/>
<path d="M143.317 35.295L141.535 37.0769L143.317 38.8588L145.098 37.0769L143.317 35.295Z" fill="#D8251E"/>
<path d="M131.392 23.5408L129.765 25.1671L131.392 26.7934L133.018 25.1671L131.392 23.5408Z" fill="#D8251E"/>
<path d="M119.477 11.7665L117.999 13.2444L119.477 14.7222L120.955 13.2444L119.477 11.7665Z" fill="#D8251E"/>
<path d="M107.56 0.00524115L106.237 1.32751L107.56 2.64979L108.882 1.32752L107.56 0.00524115Z" fill="#D8251E"/>
<path d="M229.01 139.087L226.005 142.092L229.01 145.097L232.015 142.092L229.01 139.087Z" fill="#D8251E"/>
<path d="M217.091 127.327L214.242 130.177L217.091 133.026L219.941 130.177L217.091 127.327Z" fill="#D8251E"/>
<path d="M205.178 115.552L202.476 118.253L205.178 120.954L207.879 118.253L205.178 115.552Z" fill="#D8251E"/>
<path d="M193.259 103.791L190.713 106.337L193.259 108.882L195.804 106.337L193.259 103.791Z" fill="#D8251E"/>
<path d="M181.332 92.0342L178.942 94.4242L181.332 96.8142L183.722 94.4242L181.332 92.0342Z" fill="#D8251E"/>
<path d="M169.412 80.2558L167.17 82.4973L169.412 84.7388L171.653 82.4973L169.412 80.2558Z" fill="#D8251E"/>
<path d="M157.492 68.4921L155.406 70.578L157.492 72.664L159.578 70.578L157.492 68.4921Z" fill="#D8251E"/>
<path d="M145.572 56.7268L143.641 58.6572L145.572 60.5876L147.502 58.6572L145.572 56.7268Z" fill="#D8251E"/>
<path d="M133.659 44.956L131.877 46.7379L133.659 48.5198L135.441 46.7379L133.659 44.956Z" fill="#D8251E"/>
<path d="M121.739 33.1918L120.113 34.8181L121.739 36.4444L123.365 34.8181L121.739 33.1918Z" fill="#D8251E"/>
<path d="M109.819 21.4279L108.342 22.9058L109.819 24.3836L111.297 22.9058L109.819 21.4279Z" fill="#D8251E"/>
<path d="M97.8898 9.65318L96.5675 10.9755L97.8898 12.2977L99.2121 10.9755L97.8898 9.65318Z" fill="#D8251E"/>
<path d="M219.353 148.748L216.348 151.753L219.353 154.758L222.358 151.753L219.353 148.748Z" fill="#D8251E"/>
<path d="M207.433 136.983L204.583 139.833L207.433 142.683L210.283 139.833L207.433 136.983Z" fill="#D8251E"/>
<path d="M195.52 125.212L192.819 127.913L195.52 130.614L198.221 127.913L195.52 125.212Z" fill="#D8251E"/>
<path d="M183.6 113.448L181.055 115.994L183.6 118.539L186.146 115.994L183.6 113.448Z" fill="#D8251E"/>
<path d="M171.673 101.677L169.283 104.067L171.673 106.457L174.063 104.067L171.673 101.677Z" fill="#D8251E"/>
<path d="M159.76 89.9055L157.519 92.147L159.76 94.3885L162.002 92.147L159.76 89.9055Z" fill="#D8251E"/>
<path d="M147.833 78.1486L145.747 80.2345L147.833 82.3204L149.919 80.2345L147.833 78.1486Z" fill="#D8251E"/>
<path d="M135.913 66.3843L133.983 68.3147L135.913 70.2451L137.843 68.3147L135.913 66.3843Z" fill="#D8251E"/>
<path d="M124.001 54.6168L122.219 56.3987L124.001 58.1806L125.783 56.3987L124.001 54.6168Z" fill="#D8251E"/>
<path d="M112.08 42.8491L110.454 44.4755L112.08 46.1018L113.706 44.4755L112.08 42.8491Z" fill="#D8251E"/>
<path d="M100.161 31.0738L98.6835 32.5516L100.161 34.0295L101.639 32.5516L100.161 31.0738Z" fill="#D8251E"/>
<path d="M88.2398 19.307L86.9175 20.6293L88.2398 21.9515L89.562 20.6293L88.2398 19.307Z" fill="#D8251E"/>
<path d="M209.704 158.41L206.698 161.415L209.704 164.42L212.709 161.415L209.704 158.41Z" fill="#D8251E"/>
<path d="M197.777 146.653L194.927 149.503L197.777 152.352L200.626 149.503L197.777 146.653Z" fill="#D8251E"/>
<path d="M185.856 134.87L183.155 137.571L185.856 140.272L188.557 137.571L185.856 134.87Z" fill="#D8251E"/>
<path d="M173.937 123.109L171.391 125.655L173.937 128.201L176.482 125.655L173.937 123.109Z" fill="#D8251E"/>
<path d="M162.016 111.342L159.626 113.732L162.016 116.122L164.406 113.732L162.016 111.342Z" fill="#D8251E"/>
<path d="M150.104 99.5744L147.863 101.816L150.104 104.057L152.346 101.816L150.104 99.5744Z" fill="#D8251E"/>
<path d="M138.184 87.8061L136.098 89.8921L138.184 91.978L140.27 89.8921L138.184 87.8061Z" fill="#D8251E"/>
<path d="M126.258 76.0528L124.327 77.9832L126.258 79.9135L128.188 77.9831L126.258 76.0528Z" fill="#D8251E"/>
<path d="M114.337 64.2701L112.555 66.052L114.337 67.8339L116.118 66.052L114.337 64.2701Z" fill="#D8251E"/>
<path d="M102.417 52.5064L100.79 54.1327L102.417 55.759L104.043 54.1327L102.417 52.5064Z" fill="#D8251E"/>
<path d="M90.5039 40.735L89.0261 42.2129L90.5039 43.6907L91.9817 42.2129L90.5039 40.735Z" fill="#D8251E"/>
<path d="M78.5828 28.9683L77.2606 30.2905L78.5828 31.6128L79.9051 30.2905L78.5828 28.9683Z" fill="#D8251E"/>
<path d="M200.046 168.071L197.041 171.076L200.046 174.081L203.051 171.076L200.046 168.071Z" fill="#D8251E"/>
<path d="M188.119 156.3L185.269 159.149L188.119 161.999L190.969 159.149L188.119 156.3Z" fill="#D8251E"/>
<path d="M176.206 144.524L173.505 147.225L176.206 149.926L178.907 147.225L176.206 144.524Z" fill="#D8251E"/>
<path d="M164.279 132.771L161.734 135.316L164.279 137.862L166.825 135.316L164.279 132.771Z" fill="#D8251E"/>
<path d="M152.359 121.003L149.969 123.393L152.359 125.783L154.749 123.393L152.359 121.003Z" fill="#D8251E"/>
<path d="M140.446 109.236L138.205 111.477L140.446 113.719L142.688 111.477L140.446 109.236Z" fill="#D8251E"/>
<path d="M128.526 97.4665L126.44 99.5525L128.526 101.638L130.612 99.5525L128.526 97.4665Z" fill="#D8251E"/>
<path d="M116.6 85.6994L114.669 87.6298L116.6 89.5601L118.53 87.6298L116.6 85.6994Z" fill="#D8251E"/>
<path d="M104.686 73.9244L102.904 75.7063L104.686 77.4882L106.468 75.7063L104.686 73.9244Z" fill="#D8251E"/>
<path d="M92.7599 62.171L91.1335 63.7974L92.7599 65.4237L94.3862 63.7974L92.7599 62.171Z" fill="#D8251E"/>
<path d="M80.8463 50.3959L79.3685 51.8738L80.8463 53.3516L82.3241 51.8738L80.8463 50.3959Z" fill="#D8251E"/>
<path d="M68.9271 38.6341L67.6049 39.9564L68.9271 41.2787L70.2494 39.9564L68.9271 38.6341Z" fill="#D8251E"/>
<path d="M190.381 177.72L187.376 180.726L190.381 183.731L193.386 180.726L190.381 177.72Z" fill="#D8251E"/>
<path d="M178.461 165.956L175.611 168.806L178.461 171.655L181.311 168.806L178.461 165.956Z" fill="#D8251E"/>
<path d="M166.548 154.189L163.847 156.89L166.548 159.591L169.249 156.89L166.548 154.189Z" fill="#D8251E"/>
<path d="M154.628 142.425L152.083 144.97L154.628 147.516L157.174 144.97L154.628 142.425Z" fill="#D8251E"/>
<path d="M142.701 130.667L140.311 133.057L142.701 135.447L145.091 133.057L142.701 130.667Z" fill="#D8251E"/>
<path d="M130.781 118.889L128.54 121.13L130.781 123.372L133.023 121.13L130.781 118.889Z" fill="#D8251E"/>
<path d="M118.861 107.121L116.775 109.207L118.861 111.293L120.947 109.207L118.861 107.121Z" fill="#D8251E"/>
<path d="M106.942 95.3603L105.011 97.2906L106.942 99.221L108.872 97.2907L106.942 95.3603Z" fill="#D8251E"/>
<path d="M95.0285 83.5852L93.2466 85.3671L95.0285 87.149L96.8104 85.3671L95.0285 83.5852Z" fill="#D8251E"/>
<path d="M83.1089 71.824L81.4825 73.4503L83.1089 75.0766L84.7352 73.4503L83.1089 71.824Z" fill="#D8251E"/>
<path d="M71.1887 60.0567L69.7109 61.5345L71.1887 63.0124L72.6666 61.5345L71.1887 60.0567Z" fill="#D8251E"/>
<path d="M59.262 48.2883L57.9397 49.6106L59.262 50.9329L60.5843 49.6106L59.262 48.2883Z" fill="#D8251E"/>
<path d="M180.723 187.377L177.718 190.382L180.723 193.387L183.729 190.382L180.723 187.377Z" fill="#D8251E"/>
<path d="M168.803 175.617L165.954 178.467L168.803 181.316L171.653 178.467L168.803 175.617Z" fill="#D8251E"/>
<path d="M156.891 163.842L154.189 166.543L156.891 169.244L159.592 166.543L156.891 163.842Z" fill="#D8251E"/>
<path d="M144.971 152.081L142.425 154.627L144.971 157.173L147.516 154.627L144.971 152.081Z" fill="#D8251E"/>
<path d="M133.044 140.306L130.654 142.696L133.044 145.086L135.434 142.696L133.044 140.306Z" fill="#D8251E"/>
<path d="M121.124 128.55L118.882 130.791L121.124 133.033L123.365 130.791L121.124 128.55Z" fill="#D8251E"/>
<path d="M109.204 116.782L107.118 118.868L109.204 120.954L111.29 118.868L109.204 116.782Z" fill="#D8251E"/>
<path d="M97.2836 105.021L95.3532 106.951L97.2836 108.881L99.214 106.951L97.2836 105.021Z" fill="#D8251E"/>
<path d="M85.3709 93.2459L83.589 95.0278L85.3709 96.8097L87.1528 95.0278L85.3709 93.2459Z" fill="#D8251E"/>
<path d="M73.4509 81.4852L71.8245 83.1116L73.4509 84.7379L75.0772 83.1116L73.4509 81.4852Z" fill="#D8251E"/>
<path d="M61.5311 69.7038L60.0532 71.1816L61.5311 72.6595L63.0089 71.1816L61.5311 69.7038Z" fill="#D8251E"/>
<path d="M49.6109 57.9421L48.2886 59.2644L49.6109 60.5867L50.9332 59.2644L49.6109 57.9421Z" fill="#D8251E"/>
<path d="M171.073 197.031L168.068 200.036L171.073 203.041L174.078 200.036L171.073 197.031Z" fill="#D8251E"/>
<path d="M159.146 185.278L156.296 188.128L159.146 190.977L161.995 188.128L159.146 185.278Z" fill="#D8251E"/>
<path d="M147.233 173.502L144.532 176.203L147.233 178.905L149.934 176.203L147.233 173.502Z" fill="#D8251E"/>
<path d="M135.306 161.735L132.76 164.281L135.306 166.826L137.851 164.281L135.306 161.735Z" fill="#D8251E"/>
<path d="M123.386 149.967L120.996 152.357L123.386 154.747L125.776 152.357L123.386 149.967Z" fill="#D8251E"/>
<path d="M111.473 138.2L109.232 140.441L111.473 142.683L113.715 140.441L111.473 138.2Z" fill="#D8251E"/>
<path d="M99.5537 126.432L97.4678 128.518L99.5537 130.604L101.64 128.518L99.5537 126.432Z" fill="#D8251E"/>
<path d="M87.6262 114.678L85.6958 116.609L87.6262 118.539L89.5566 116.609L87.6262 114.678Z" fill="#D8251E"/>
<path d="M75.7133 102.907L73.9314 104.689L75.7133 106.471L77.4952 104.689L75.7133 102.907Z" fill="#D8251E"/>
<path d="M63.7864 91.1356L62.16 92.762L63.7864 94.3883L65.4127 92.762L63.7864 91.1356Z" fill="#D8251E"/>
<path d="M51.8736 79.364L50.3958 80.8418L51.8736 82.3196L53.3514 80.8418L51.8736 79.364Z" fill="#D8251E"/>
<path d="M39.9544 67.5972L38.6321 68.9194L39.9544 70.2417L41.2767 68.9194L39.9544 67.5972Z" fill="#D8251E"/>
<path d="M161.416 206.691L158.411 209.697L161.416 212.702L164.421 209.697L161.416 206.691Z" fill="#D8251E"/>
<path d="M149.489 194.92L146.639 197.77L149.489 200.62L152.338 197.77L149.489 194.92Z" fill="#D8251E"/>
<path d="M137.569 183.156L134.868 185.857L137.569 188.558L140.27 185.857L137.569 183.156Z" fill="#D8251E"/>
<path d="M125.649 171.392L123.103 173.938L125.649 176.483L128.195 173.938L125.649 171.392Z" fill="#D8251E"/>
<path d="M113.729 159.628L111.339 162.018L113.729 164.408L116.119 162.018L113.729 159.628Z" fill="#D8251E"/>
<path d="M101.816 147.857L99.5748 150.098L101.816 152.34L104.058 150.098L101.816 147.857Z" fill="#D8251E"/>
<path d="M89.8964 136.092L87.8105 138.178L89.8964 140.264L91.9824 138.178L89.8964 136.092Z" fill="#D8251E"/>
<path d="M77.9695 124.321L76.0391 126.252L77.9695 128.182L79.8999 126.252L77.9695 124.321Z" fill="#D8251E"/>
<path d="M66.0497 112.557L64.2678 114.339L66.0497 116.121L67.8315 114.339L66.0497 112.557Z" fill="#D8251E"/>
<path d="M54.1298 100.793L52.5035 102.419L54.1298 104.046L55.7561 102.419L54.1298 100.793Z" fill="#D8251E"/>
<path d="M42.2171 89.022L40.7393 90.4999L42.2171 91.9777L43.6949 90.4999L42.2171 89.022Z" fill="#D8251E"/>
<path d="M30.2971 77.2583L28.9749 78.5806L30.2971 79.9028L31.6194 78.5806L30.2971 77.2583Z" fill="#D8251E"/>
<path d="M151.749 216.358L148.744 219.364L151.749 222.369L154.754 219.364L151.749 216.358Z" fill="#D8251E"/>
<path d="M139.83 204.59L136.98 207.439L139.83 210.289L142.679 207.439L139.83 204.59Z" fill="#D8251E"/>
<path d="M127.917 192.818L125.216 195.52L127.917 198.221L130.618 195.52L127.917 192.818Z" fill="#D8251E"/>
<path d="M115.997 181.054L113.451 183.6L115.997 186.145L118.542 183.6L115.997 181.054Z" fill="#D8251E"/>
<path d="M104.071 169.293L101.681 171.683L104.071 174.073L106.461 171.683L104.071 169.293Z" fill="#D8251E"/>
<path d="M92.1567 157.526L89.9152 159.767L92.1567 162.009L94.3982 159.767L92.1567 157.526Z" fill="#D8251E"/>
<path d="M80.2311 145.75L78.1451 147.836L80.2311 149.922L82.317 147.836L80.2311 145.75Z" fill="#D8251E"/>
<path d="M68.3097 133.99L66.3793 135.92L68.3097 137.85L70.2401 135.92L68.3097 133.99Z" fill="#D8251E"/>
<path d="M56.3981 122.215L54.6162 123.996L56.3981 125.778L58.18 123.996L56.3981 122.215Z" fill="#D8251E"/>
<path d="M44.4781 110.451L42.8517 112.077L44.4781 113.703L46.1044 112.077L44.4781 110.451Z" fill="#D8251E"/>
<path d="M32.5583 98.6861L31.0804 100.164L32.5583 101.642L34.0361 100.164L32.5583 98.6861Z" fill="#D8251E"/>
<path d="M20.6386 86.9215L19.3163 88.2438L20.6386 89.5661L21.9609 88.2438L20.6386 86.9215Z" fill="#D8251E"/>
<path d="M142.093 226.011L139.088 229.016L142.093 232.021L145.098 229.016L142.093 226.011Z" fill="#D8251E"/>
<path d="M130.173 214.246L127.323 217.096L130.173 219.946L133.022 217.096L130.173 214.246Z" fill="#D8251E"/>
<path d="M118.26 202.475L115.559 205.176L118.26 207.877L120.961 205.176L118.26 202.475Z" fill="#D8251E"/>
<path d="M106.339 190.715L103.793 193.26L106.339 195.806L108.884 193.26L106.339 190.715Z" fill="#D8251E"/>
<path d="M94.4121 178.943L92.0221 181.333L94.4121 183.723L96.8021 181.333L94.4121 178.943Z" fill="#D8251E"/>
<path d="M82.4918 167.179L80.2503 169.421L82.4918 171.662L84.7333 169.421L82.4918 167.179Z" fill="#D8251E"/>
<path d="M70.5734 155.411L68.4874 157.497L70.5734 159.583L72.6593 157.497L70.5734 155.411Z" fill="#D8251E"/>
<path d="M58.6518 143.65L56.7214 145.581L58.6518 147.511L60.5822 145.581L58.6518 143.65Z" fill="#D8251E"/>
<path d="M46.7405 131.875L44.9586 133.657L46.7405 135.439L48.5224 133.657L46.7405 131.875Z" fill="#D8251E"/>
<path d="M34.8189 120.114L33.1926 121.741L34.8189 123.367L36.4452 121.741L34.8189 120.114Z" fill="#D8251E"/>
<path d="M22.9006 108.333L21.4228 109.811L22.9006 111.288L24.3785 109.811L22.9006 108.333Z" fill="#D8251E"/>
<path d="M10.9713 96.5785L9.64905 97.9008L10.9713 99.223L12.2936 97.9008L10.9713 96.5785Z" fill="#D8251E"/>
<path d="M132.442 235.664L129.437 238.67L132.442 241.675L135.447 238.67L132.442 235.664Z" fill="#D8251E"/>
<path d="M120.515 223.907L117.666 226.757L120.515 229.606L123.365 226.757L120.515 223.907Z" fill="#D8251E"/>
<path d="M108.602 212.136L105.901 214.837L108.602 217.538L111.304 214.837L108.602 212.136Z" fill="#D8251E"/>
<path d="M96.6754 200.365L94.1299 202.91L96.6754 205.456L99.221 202.91L96.6754 200.365Z" fill="#D8251E"/>
<path d="M84.7556 188.6L82.3656 190.99L84.7556 193.38L87.1456 190.99L84.7556 188.6Z" fill="#D8251E"/>
<path d="M72.8427 176.829L70.6012 179.071L72.8427 181.312L75.0842 179.071L72.8427 176.829Z" fill="#D8251E"/>
<path d="M60.921 165.069L58.8351 167.155L60.921 169.24L63.007 167.155L60.921 165.069Z" fill="#D8251E"/>
<path d="M48.9941 153.311L47.0637 155.241L48.9941 157.172L50.9245 155.241L48.9941 153.311Z" fill="#D8251E"/>
<path d="M37.0808 141.54L35.299 143.322L37.0808 145.104L38.8627 143.322L37.0808 141.54Z" fill="#D8251E"/>
<path d="M25.1537 129.768L23.5273 131.395L25.1537 133.021L26.78 131.395L25.1537 129.768Z" fill="#D8251E"/>
<path d="M13.2428 117.994L11.765 119.472L13.2428 120.95L14.7206 119.472L13.2428 117.994Z" fill="#D8251E"/>
<path d="M1.32032 106.232L-0.00195312 107.555L1.32032 108.877L2.6426 107.555L1.32032 106.232Z" fill="#D8251E"/>
</g>
<defs>
<clipPath id="clip0_2_70">
<rect width="241.68" height="241.68" fill="white"/>
</clipPath>
</defs>
</svg>
