<svg width="23" height="18" viewBox="0 0 23 18" fill="none" xmlns="http://www.w3.org/2000/svg">
<path d="M20.8438 0H2.15625C0.965371 0 0 1.00734 0 2.25V15.75C0 16.9927 0.965371 18 2.15625 18H20.8438C22.0346 18 23 16.9927 23 15.75V2.25C23 1.00734 22.0346 0 20.8438 0ZM20.8438 2.25V4.16273C19.8365 5.01862 18.2307 6.3495 14.7978 9.15445C14.0413 9.77541 12.5427 11.2672 11.5 11.2498C10.4575 11.2674 8.95837 9.77517 8.20215 9.15445C4.7698 6.34992 3.16362 5.01877 2.15625 4.16273V2.25H20.8438ZM2.15625 15.75V7.04991C3.18559 7.90542 4.64533 9.10594 6.87026 10.9239C7.85212 11.7304 9.57159 13.5108 11.5 13.5C13.4189 13.5108 15.1166 11.7563 16.1293 10.9243C18.3542 9.10636 19.8144 7.90552 20.8438 7.04995V15.75H2.15625Z" fill="#D8251E"/>
</svg>
