<svg width="20" height="20" viewBox="0 0 20 20" fill="none" xmlns="http://www.w3.org/2000/svg">
<path d="M19.2678 2.19669L17.8033 0.732232C16.8271 -0.244058 15.2442 -0.244097 14.2678 0.732232L0.501493 14.4985L0.00590711 18.9588C-0.060421 19.5559 0.444189 20.0605 1.04122 19.9941L5.50154 19.4985L19.2678 5.73224C20.2441 4.75591 20.2441 3.17298 19.2678 2.19669ZM6.43306 13.5669C6.67716 13.811 7.07286 13.811 7.31693 13.5669L14.375 6.50884L15.5492 7.68302L6.79689 16.4353V15.0781H4.92189V13.2031H3.56466L12.317 4.45079L13.4911 5.62497L6.43306 12.6831C6.18896 12.9271 6.18896 13.3228 6.43306 13.5669ZM4.92763 18.3046L2.62314 18.5606L1.43935 17.3769L1.6954 15.0724L2.47091 14.2969H3.82814V16.1719H5.70314V17.5291L4.92763 18.3046ZM18.3839 4.84833L16.4331 6.79915L13.2008 3.56692L15.1517 1.6161C15.6401 1.12762 16.4309 1.12755 16.9194 1.6161L18.3839 3.08055C18.8724 3.56907 18.8724 4.35974 18.3839 4.84833Z" fill="#D8251E"/>
</svg>
