<svg width="20" height="22" viewBox="0 0 20 22" fill="none" xmlns="http://www.w3.org/2000/svg">
<path d="M14 12.375C12.7188 12.375 12.1027 13.0625 10 13.0625C7.89732 13.0625 7.28571 12.375 6 12.375C2.6875 12.375 0 14.9617 0 18.15V19.9375C0 21.0762 0.959821 22 2.14286 22H17.8571C19.0402 22 20 21.0762 20 19.9375V18.15C20 14.9617 17.3125 12.375 14 12.375ZM18.5714 19.9375C18.5714 20.3156 18.25 20.625 17.8571 20.625H2.14286C1.75 20.625 1.42857 20.3156 1.42857 19.9375V18.15C1.42857 15.7223 3.47768 13.75 6 13.75C6.875 13.75 7.74554 14.4375 10 14.4375C12.25 14.4375 13.125 13.75 14 13.75C16.5223 13.75 18.5714 15.7223 18.5714 18.15V19.9375ZM10 11C13.1562 11 15.7143 8.53789 15.7143 5.5C15.7143 2.46211 13.1562 0 10 0C6.84375 0 4.28571 2.46211 4.28571 5.5C4.28571 8.53789 6.84375 11 10 11ZM10 1.375C12.3616 1.375 14.2857 3.22695 14.2857 5.5C14.2857 7.77305 12.3616 9.625 10 9.625C7.63839 9.625 5.71429 7.77305 5.71429 5.5C5.71429 3.22695 7.63839 1.375 10 1.375Z" fill="#D8251E"/>
</svg>
