<svg width="13" height="15" viewBox="0 0 13 15" fill="none" xmlns="http://www.w3.org/2000/svg">
<path d="M12.2953 9.66797L9.71591 8.39209C9.48435 8.27847 9.22713 8.25445 8.98275 8.32364C8.73837 8.39283 8.51999 8.55149 8.36032 8.77588L7.53005 9.94775C6.19816 9.11016 5.10347 7.84776 4.37681 6.31143L5.39243 5.35343C5.58689 5.16898 5.72438 4.91685 5.78434 4.63474C5.84429 4.35264 5.82349 4.05572 5.72504 3.78839L4.62107 0.814174C4.51451 0.524728 4.32293 0.287892 4.08001 0.145307C3.83709 0.00272252 3.55839 -0.0364827 3.29289 0.034585L0.901367 0.670619C0.644757 0.737815 0.415646 0.903886 0.251796 1.14146C0.0879467 1.37903 -0.000862476 1.67393 6.31422e-06 1.97755C6.31422e-06 9.19219 5.06997 15.0029 11.2876 15C11.5507 15.0009 11.8062 14.8983 12.012 14.7092C12.2178 14.5201 12.3616 14.2557 12.4197 13.9597L12.9707 11.1993C13.0314 10.8932 12.9971 10.5722 12.8737 10.2923C12.7502 10.0125 12.5455 9.7915 12.2953 9.66797ZM11.2393 13.5964C5.71489 13.5671 1.24414 8.40821 1.21875 2.03029L3.52141 1.41798L4.59009 4.29552L2.86125 5.92764C4.03912 8.82803 5.35434 10.3406 7.86317 11.6991L9.27716 9.70371L11.7703 10.9374L11.2393 13.5964Z" fill="white"/>
</svg>
