<svg width="20" height="23" viewBox="0 0 20 23" fill="none" xmlns="http://www.w3.org/2000/svg">
<path d="M18.9159 14.8242L14.9476 12.8679C14.5913 12.6937 14.1956 12.6568 13.8196 12.7629C13.4437 12.869 13.1077 13.1123 12.862 13.4564L11.5847 15.2532C9.53564 13.9689 7.8515 12.0332 6.73355 9.67753L8.29604 8.20858C8.59522 7.92576 8.80674 7.53917 8.89898 7.1066C8.99122 6.67404 8.95922 6.21877 8.80776 5.80886L7.10933 1.2484C6.9454 0.804583 6.65067 0.441435 6.27694 0.222805C5.90322 0.00417453 5.47444 -0.0559401 5.06599 0.0530303L1.38672 1.02828C0.991934 1.13132 0.639455 1.38596 0.387379 1.75024C0.135303 2.11452 -0.00132689 2.5667 9.71418e-06 3.03224C9.71418e-06 14.0947 7.79995 23.0045 17.3655 23C17.7703 23.0014 18.1634 22.8441 18.48 22.5542C18.7966 22.2642 19.0179 21.8588 19.1073 21.4048L19.9549 17.1723C20.0484 16.7029 19.9955 16.2107 19.8056 15.7816C19.6157 15.3525 19.3008 15.0136 18.9159 14.8242ZM17.2913 20.8478C8.79213 20.8029 1.91406 12.8926 1.875 3.1131L5.41755 2.17424L7.06168 6.58646L4.40193 9.08905C6.21403 13.5363 8.23745 15.8556 12.0972 17.9386L14.2726 14.879L18.1081 16.7707L17.2913 20.8478Z" fill="#D8251E"/>
</svg>
