<svg width="158" height="139" viewBox="0 0 158 139" fill="none" xmlns="http://www.w3.org/2000/svg">
<path d="M4.97 1H1V4.97H4.97V1Z" stroke="#C4C4C4" stroke-width="1.0782" stroke-miterlimit="10"/>
<path d="M35.3001 1H31.3301V4.97H35.3001V1Z" stroke="#C4C4C4" stroke-width="1.0782" stroke-miterlimit="10"/>
<path d="M65.6399 1H61.6699V4.97H65.6399V1Z" stroke="#C4C4C4" stroke-width="1.0782" stroke-miterlimit="10"/>
<path d="M95.98 1H92.01V4.97H95.98V1Z" stroke="#C4C4C4" stroke-width="1.0782" stroke-miterlimit="10"/>
<path d="M126.31 1H122.34V4.97H126.31V1Z" stroke="#C4C4C4" stroke-width="1.0782" stroke-miterlimit="10"/>
<path d="M156.65 1H152.68V4.97H156.65V1Z" stroke="#C4C4C4" stroke-width="1.0782" stroke-miterlimit="10"/>
<path d="M4.97 23.1099H1V27.0799H4.97V23.1099Z" stroke="#C4C4C4" stroke-width="1.0782" stroke-miterlimit="10"/>
<path d="M35.3001 23.1099H31.3301V27.0799H35.3001V23.1099Z" stroke="#D8251E" stroke-width="1.0782" stroke-miterlimit="10"/>
<path d="M65.6399 23.1099H61.6699V27.0799H65.6399V23.1099Z" stroke="#C4C4C4" stroke-width="1.0782" stroke-miterlimit="10"/>
<path d="M95.98 23.1099H92.01V27.0799H95.98V23.1099Z" stroke="#C4C4C4" stroke-width="1.0782" stroke-miterlimit="10"/>
<path d="M126.31 23.1099H122.34V27.0799H126.31V23.1099Z" stroke="#C4C4C4" stroke-width="1.0782" stroke-miterlimit="10"/>
<path d="M156.65 23.1099H152.68V27.0799H156.65V23.1099Z" stroke="#C4C4C4" stroke-width="1.0782" stroke-miterlimit="10"/>
<path d="M4.97 45.23H1V49.2H4.97V45.23Z" stroke="#C4C4C4" stroke-width="1.0782" stroke-miterlimit="10"/>
<path d="M35.3001 45.23H31.3301V49.2H35.3001V45.23Z" stroke="#C4C4C4" stroke-width="1.0782" stroke-miterlimit="10"/>
<path d="M65.6399 45.23H61.6699V49.2H65.6399V45.23Z" stroke="#C4C4C4" stroke-width="1.0782" stroke-miterlimit="10"/>
<path d="M95.98 45.23H92.01V49.2H95.98V45.23Z" stroke="#D8251E" stroke-width="1.0782" stroke-miterlimit="10"/>
<path d="M126.31 45.23H122.34V49.2H126.31V45.23Z" stroke="#C4C4C4" stroke-width="1.0782" stroke-miterlimit="10"/>
<path d="M156.65 45.23H152.68V49.2H156.65V45.23Z" stroke="#C4C4C4" stroke-width="1.0782" stroke-miterlimit="10"/>
<path d="M4.97 67.3401H1V71.3101H4.97V67.3401Z" stroke="#C4C4C4" stroke-width="1.0782" stroke-miterlimit="10"/>
<path d="M35.3001 67.3401H31.3301V71.3101H35.3001V67.3401Z" stroke="#C4C4C4" stroke-width="1.0782" stroke-miterlimit="10"/>
<path d="M65.6399 67.3401H61.6699V71.3101H65.6399V67.3401Z" stroke="#C4C4C4" stroke-width="1.0782" stroke-miterlimit="10"/>
<path d="M95.98 67.3401H92.01V71.3101H95.98V67.3401Z" stroke="#C4C4C4" stroke-width="1.0782" stroke-miterlimit="10"/>
<path d="M126.31 67.3401H122.34V71.3101H126.31V67.3401Z" stroke="#C4C4C4" stroke-width="1.0782" stroke-miterlimit="10"/>
<path d="M156.65 67.3401H152.68V71.3101H156.65V67.3401Z" stroke="#C4C4C4" stroke-width="1.0782" stroke-miterlimit="10"/>
<path d="M4.97 89.45H1V93.42H4.97V89.45Z" stroke="#C4C4C4" stroke-width="1.0782" stroke-miterlimit="10"/>
<path d="M35.3001 89.45H31.3301V93.42H35.3001V89.45Z" fill="black"/>
<path d="M65.6399 89.45H61.6699V93.42H65.6399V89.45Z" fill="black"/>
<path d="M95.98 89.45H92.01V93.42H95.98V89.45Z" stroke="#C4C4C4" stroke-width="1.0782" stroke-miterlimit="10"/>
<path d="M126.31 89.45H122.34V93.42H126.31V89.45Z" stroke="#D8251E" stroke-width="1.0782" stroke-miterlimit="10"/>
<path d="M156.65 89.45H152.68V93.42H156.65V89.45Z" stroke="#C4C4C4" stroke-width="1.0782" stroke-miterlimit="10"/>
<path d="M4.97 111.57H1V115.54H4.97V111.57Z" stroke="#C4C4C4" stroke-width="1.0782" stroke-miterlimit="10"/>
<path d="M35.3001 111.57H31.3301V115.54H35.3001V111.57Z" stroke="#C4C4C4" stroke-width="1.0782" stroke-miterlimit="10"/>
<path d="M65.6399 111.57H61.6699V115.54H65.6399V111.57Z" stroke="#C4C4C4" stroke-width="1.0782" stroke-miterlimit="10"/>
<path d="M95.98 111.57H92.01V115.54H95.98V111.57Z" fill="black"/>
<path d="M126.31 111.57H122.34V115.54H126.31V111.57Z" stroke="#C4C4C4" stroke-width="1.0782" stroke-miterlimit="10"/>
<path d="M156.65 111.57H152.68V115.54H156.65V111.57Z" stroke="#C4C4C4" stroke-width="1.0782" stroke-miterlimit="10"/>
<path d="M4.97 133.68H1V137.65H4.97V133.68Z" stroke="#C4C4C4" stroke-width="1.0782" stroke-miterlimit="10"/>
<path d="M35.3001 133.68H31.3301V137.65H35.3001V133.68Z" stroke="#C4C4C4" stroke-width="1.0782" stroke-miterlimit="10"/>
<path d="M65.6399 133.68H61.6699V137.65H65.6399V133.68Z" stroke="#C4C4C4" stroke-width="1.0782" stroke-miterlimit="10"/>
<path d="M95.98 133.68H92.01V137.65H95.98V133.68Z" stroke="#C4C4C4" stroke-width="1.0782" stroke-miterlimit="10"/>
<path d="M126.31 133.68H122.34V137.65H126.31V133.68Z" fill="black"/>
<path d="M156.65 133.68H152.68V137.65H156.65V133.68Z" stroke="#C4C4C4" stroke-width="1.0782" stroke-miterlimit="10"/>
</svg>
