<svg width="167" height="9" viewBox="0 0 167 9" fill="none" xmlns="http://www.w3.org/2000/svg">
<g clip-path="url(#clip0_2_422)">
<path d="M0 0.0763125C2.96691 0.0229226 5.41115 1.18224 7.63249 2.98224C12.3826 6.82631 15.4879 6.81869 20.115 3.07377C25.2187 -1.0525 30.4761 -1.02962 35.649 3.15004C40.1301 6.7653 43.3507 6.7653 47.8395 3.14241C53.0047 -1.02962 58.2774 -1.0525 63.3735 3.0814C67.9929 6.82631 71.0751 6.80343 75.8637 2.9975C80.8751 -0.991484 86.0941 -0.991484 91.1133 2.9975C96.0017 6.88733 98.8534 6.84919 103.888 2.8297C108.615 -0.945721 114.057 -0.92284 118.861 2.89835C123.857 6.87208 126.624 6.87208 131.612 2.90597C136.539 -1.01437 141.889 -0.953349 146.862 3.0814C151.489 6.82631 154.594 6.83394 159.344 2.98987C161.573 1.18987 164.01 0.0305498 166.977 0.0839396C166.977 1.06784 166.977 2.04411 166.977 3.02801C164.494 3.34835 162.473 4.45428 160.567 6.04072C155.832 9.98394 150.459 9.95343 145.632 6.17038C140.375 2.05174 137.892 2.06699 132.581 6.25428C127.992 9.86953 122.466 9.86953 117.885 6.26191C112.573 2.07462 110.068 2.05936 104.833 6.16275C100.006 9.95343 94.6874 9.92292 89.8681 6.07886C84.9258 2.13563 82.0281 2.13563 77.0858 6.07886C72.2665 9.92292 66.963 9.95343 62.1206 6.16275C56.8785 2.05174 54.3882 2.07462 49.0693 6.26191C44.4882 9.86953 38.9541 9.86953 34.3731 6.25428C29.0695 2.07462 26.5715 2.05174 21.3218 6.17038C16.5255 9.9458 11.1451 9.97631 6.41037 6.03309C4.50417 4.44665 2.48267 3.34072 0 3.02038C0 2.04411 0 1.06021 0 0.0763125Z" fill="#D8251E"/>
</g>
<defs>
<clipPath id="clip0_2_422">
<rect width="167" height="9" fill="white"/>
</clipPath>
</defs>
</svg>
